# xmcd
#
# Track frame offsets: 
#        150
#        20874
#        37263
#        53145
#        71439
#        84390
#        101223
#        125930
#        139227
#        155570
#        168467
#        179479
#        195022
#        209134
#
# Disc length: 3066 seconds
#
# Revision: 0
# Processed by: cddbd v1.5.2PL0 Copyright (c) Steve Scherf et al.
# Submitted via: ExactAudioCopy v0.95b4
#
DISCID=d70bf80e
DTITLE=Stainless Blues Band - Acoustic
DYEAR=1997
DGENRE=Blues
TTITLE0=Crossroads
TTITLE1=Walkin' Blues
TTITLE2=I Can't Be Satisfied
TTITLE3=Sugar Mama
TTITLE4=I'm Gonna Leave You Baby
TTITLE5=All Your Love
TTITLE6=Lightnin'
TTITLE7=I Want To Be Loved
TTITLE8=Bright Light Big City
TTITLE9=Brown Stone
TTITLE10=Everyday I Have The Blues
TTITLE11=Sitting On Top Of The World
TTITLE12=Eyes Like A Cat
TTITLE13=Little Wing
EXTD=
EXTT0=
EXTT1=
EXTT2=
EXTT3=
EXTT4=
EXTT5=
EXTT6=
EXTT7=
EXTT8=
EXTT9=
EXTT10=
EXTT11=
EXTT12=
EXTT13=
PLAYORDER=
